<svg xmlns="http://www.w3.org/2000/svg" viewBox="0 0 988 520" width="988" height="520" role="img" aria-label="Flag of the United States">
<rect x="0" y="0.00" width="988" height="40.00" fill="#B22234"/><rect x="0" y="40.00" width="988" height="40.00" fill="#FFFFFF"/><rect x="0" y="80.00" width="988" height="40.00" fill="#B22234"/><rect x="0" y="120.00" width="988" height="40.00" fill="#FFFFFF"/><rect x="0" y="160.00" width="988" height="40.00" fill="#B22234"/><rect x="0" y="200.00" width="988" height="40.00" fill="#FFFFFF"/><rect x="0" y="240.00" width="988" height="40.00" fill="#B22234"/><rect x="0" y="280.00" width="988" height="40.00" fill="#FFFFFF"/><rect x="0" y="320.00" width="988" height="40.00" fill="#B22234"/><rect x="0" y="360.00" width="988" height="40.00" fill="#FFFFFF"/><rect x="0" y="400.00" width="988" height="40.00" fill="#B22234"/><rect x="0" y="440.00" width="988" height="40.00" fill="#FFFFFF"/><rect x="0" y="480.00" width="988" height="40.00" fill="#B22234"/>
<rect x="0" y="0" width="395.2" height="280.00" fill="#3C3B6E"/>
<path d="M32.93,12.00L36.53,23.06L48.15,23.06L38.75,29.89L42.34,40.94L32.93,34.11L23.53,40.94L27.12,29.89L17.72,23.06L29.34,23.06Z" fill="#FFFFFF"/><path d="M98.80,12.00L102.39,23.06L114.02,23.06L104.61,29.89L108.20,40.94L98.80,34.11L89.40,40.94L92.99,29.89L83.58,23.06L95.21,23.06Z" fill="#FFFFFF"/><path d="M164.67,12.00L168.26,23.06L179.88,23.06L170.48,29.89L174.07,40.94L164.67,34.11L155.26,40.94L158.85,29.89L149.45,23.06L161.07,23.06Z" fill="#FFFFFF"/><path d="M230.53,12.00L234.13,23.06L245.75,23.06L236.35,29.89L239.94,40.94L230.53,34.11L221.13,40.94L224.72,29.89L215.32,23.06L226.94,23.06Z" fill="#FFFFFF"/><path d="M296.40,12.00L299.99,23.06L311.62,23.06L302.21,29.89L305.80,40.94L296.40,34.11L287.00,40.94L290.59,29.89L281.18,23.06L292.81,23.06Z" fill="#FFFFFF"/><path d="M362.27,12.00L365.86,23.06L377.48,23.06L368.08,29.89L371.67,40.94L362.27,34.11L352.86,40.94L356.45,29.89L347.05,23.06L358.67,23.06Z" fill="#FFFFFF"/><path d="M65.87,40.00L69.46,51.06L81.08,51.06L71.68,57.89L75.27,68.94L65.87,62.11L56.46,68.94L60.05,57.89L50.65,51.06L62.27,51.06Z" fill="#FFFFFF"/><path d="M131.73,40.00L135.33,51.06L146.95,51.06L137.55,57.89L141.14,68.94L131.73,62.11L122.33,68.94L125.92,57.89L116.52,51.06L128.14,51.06Z" fill="#FFFFFF"/><path d="M197.60,40.00L201.19,51.06L212.82,51.06L203.41,57.89L207.00,68.94L197.60,62.11L188.20,68.94L191.79,57.89L182.38,51.06L194.01,51.06Z" fill="#FFFFFF"/><path d="M263.47,40.00L267.06,51.06L278.68,51.06L269.28,57.89L272.87,68.94L263.47,62.11L254.06,68.94L257.65,57.89L248.25,51.06L259.87,51.06Z" fill="#FFFFFF"/><path d="M329.33,40.00L332.93,51.06L344.55,51.06L335.15,57.89L338.74,68.94L329.33,62.11L319.93,68.94L323.52,57.89L314.12,51.06L325.74,51.06Z" fill="#FFFFFF"/><path d="M32.93,68.00L36.53,79.06L48.15,79.06L38.75,85.89L42.34,96.94L32.93,90.11L23.53,96.94L27.12,85.89L17.72,79.06L29.34,79.06Z" fill="#FFFFFF"/><path d="M98.80,68.00L102.39,79.06L114.02,79.06L104.61,85.89L108.20,96.94L98.80,90.11L89.40,96.94L92.99,85.89L83.58,79.06L95.21,79.06Z" fill="#FFFFFF"/><path d="M164.67,68.00L168.26,79.06L179.88,79.06L170.48,85.89L174.07,96.94L164.67,90.11L155.26,96.94L158.85,85.89L149.45,79.06L161.07,79.06Z" fill="#FFFFFF"/><path d="M230.53,68.00L234.13,79.06L245.75,79.06L236.35,85.89L239.94,96.94L230.53,90.11L221.13,96.94L224.72,85.89L215.32,79.06L226.94,79.06Z" fill="#FFFFFF"/><path d="M296.40,68.00L299.99,79.06L311.62,79.06L302.21,85.89L305.80,96.94L296.40,90.11L287.00,96.94L290.59,85.89L281.18,79.06L292.81,79.06Z" fill="#FFFFFF"/><path d="M362.27,68.00L365.86,79.06L377.48,79.06L368.08,85.89L371.67,96.94L362.27,90.11L352.86,96.94L356.45,85.89L347.05,79.06L358.67,79.06Z" fill="#FFFFFF"/><path d="M65.87,96.00L69.46,107.06L81.08,107.06L71.68,113.89L75.27,124.94L65.87,118.11L56.46,124.94L60.05,113.89L50.65,107.06L62.27,107.06Z" fill="#FFFFFF"/><path d="M131.73,96.00L135.33,107.06L146.95,107.06L137.55,113.89L141.14,124.94L131.73,118.11L122.33,124.94L125.92,113.89L116.52,107.06L128.14,107.06Z" fill="#FFFFFF"/><path d="M197.60,96.00L201.19,107.06L212.82,107.06L203.41,113.89L207.00,124.94L197.60,118.11L188.20,124.94L191.79,113.89L182.38,107.06L194.01,107.06Z" fill="#FFFFFF"/><path d="M263.47,96.00L267.06,107.06L278.68,107.06L269.28,113.89L272.87,124.94L263.47,118.11L254.06,124.94L257.65,113.89L248.25,107.06L259.87,107.06Z" fill="#FFFFFF"/><path d="M329.33,96.00L332.93,107.06L344.55,107.06L335.15,113.89L338.74,124.94L329.33,118.11L319.93,124.94L323.52,113.89L314.12,107.06L325.74,107.06Z" fill="#FFFFFF"/><path d="M32.93,124.00L36.53,135.06L48.15,135.06L38.75,141.89L42.34,152.94L32.93,146.11L23.53,152.94L27.12,141.89L17.72,135.06L29.34,135.06Z" fill="#FFFFFF"/><path d="M98.80,124.00L102.39,135.06L114.02,135.06L104.61,141.89L108.20,152.94L98.80,146.11L89.40,152.94L92.99,141.89L83.58,135.06L95.21,135.06Z" fill="#FFFFFF"/><path d="M164.67,124.00L168.26,135.06L179.88,135.06L170.48,141.89L174.07,152.94L164.67,146.11L155.26,152.94L158.85,141.89L149.45,135.06L161.07,135.06Z" fill="#FFFFFF"/><path d="M230.53,124.00L234.13,135.06L245.75,135.06L236.35,141.89L239.94,152.94L230.53,146.11L221.13,152.94L224.72,141.89L215.32,135.06L226.94,135.06Z" fill="#FFFFFF"/><path d="M296.40,124.00L299.99,135.06L311.62,135.06L302.21,141.89L305.80,152.94L296.40,146.11L287.00,152.94L290.59,141.89L281.18,135.06L292.81,135.06Z" fill="#FFFFFF"/><path d="M362.27,124.00L365.86,135.06L377.48,135.06L368.08,141.89L371.67,152.94L362.27,146.11L352.86,152.94L356.45,141.89L347.05,135.06L358.67,135.06Z" fill="#FFFFFF"/><path d="M65.87,152.00L69.46,163.06L81.08,163.06L71.68,169.89L75.27,180.94L65.87,174.11L56.46,180.94L60.05,169.89L50.65,163.06L62.27,163.06Z" fill="#FFFFFF"/><path d="M131.73,152.00L135.33,163.06L146.95,163.06L137.55,169.89L141.14,180.94L131.73,174.11L122.33,180.94L125.92,169.89L116.52,163.06L128.14,163.06Z" fill="#FFFFFF"/><path d="M197.60,152.00L201.19,163.06L212.82,163.06L203.41,169.89L207.00,180.94L197.60,174.11L188.20,180.94L191.79,169.89L182.38,163.06L194.01,163.06Z" fill="#FFFFFF"/><path d="M263.47,152.00L267.06,163.06L278.68,163.06L269.28,169.89L272.87,180.94L263.47,174.11L254.06,180.94L257.65,169.89L248.25,163.06L259.87,163.06Z" fill="#FFFFFF"/><path d="M329.33,152.00L332.93,163.06L344.55,163.06L335.15,169.89L338.74,180.94L329.33,174.11L319.93,180.94L323.52,169.89L314.12,163.06L325.74,163.06Z" fill="#FFFFFF"/><path d="M32.93,180.00L36.53,191.06L48.15,191.06L38.75,197.89L42.34,208.94L32.93,202.11L23.53,208.94L27.12,197.89L17.72,191.06L29.34,191.06Z" fill="#FFFFFF"/><path d="M98.80,180.00L102.39,191.06L114.02,191.06L104.61,197.89L108.20,208.94L98.80,202.11L89.40,208.94L92.99,197.89L83.58,191.06L95.21,191.06Z" fill="#FFFFFF"/><path d="M164.67,180.00L168.26,191.06L179.88,191.06L170.48,197.89L174.07,208.94L164.67,202.11L155.26,208.94L158.85,197.89L149.45,191.06L161.07,191.06Z" fill="#FFFFFF"/><path d="M230.53,180.00L234.13,191.06L245.75,191.06L236.35,197.89L239.94,208.94L230.53,202.11L221.13,208.94L224.72,197.89L215.32,191.06L226.94,191.06Z" fill="#FFFFFF"/><path d="M296.40,180.00L299.99,191.06L311.62,191.06L302.21,197.89L305.80,208.94L296.40,202.11L287.00,208.94L290.59,197.89L281.18,191.06L292.81,191.06Z" fill="#FFFFFF"/><path d="M362.27,180.00L365.86,191.06L377.48,191.06L368.08,197.89L371.67,208.94L362.27,202.11L352.86,208.94L356.45,197.89L347.05,191.06L358.67,191.06Z" fill="#FFFFFF"/><path d="M65.87,208.00L69.46,219.06L81.08,219.06L71.68,225.89L75.27,236.94L65.87,230.11L56.46,236.94L60.05,225.89L50.65,219.06L62.27,219.06Z" fill="#FFFFFF"/><path d="M131.73,208.00L135.33,219.06L146.95,219.06L137.55,225.89L141.14,236.94L131.73,230.11L122.33,236.94L125.92,225.89L116.52,219.06L128.14,219.06Z" fill="#FFFFFF"/><path d="M197.60,208.00L201.19,219.06L212.82,219.06L203.41,225.89L207.00,236.94L197.60,230.11L188.20,236.94L191.79,225.89L182.38,219.06L194.01,219.06Z" fill="#FFFFFF"/><path d="M263.47,208.00L267.06,219.06L278.68,219.06L269.28,225.89L272.87,236.94L263.47,230.11L254.06,236.94L257.65,225.89L248.25,219.06L259.87,219.06Z" fill="#FFFFFF"/><path d="M329.33,208.00L332.93,219.06L344.55,219.06L335.15,225.89L338.74,236.94L329.33,230.11L319.93,236.94L323.52,225.89L314.12,219.06L325.74,219.06Z" fill="#FFFFFF"/><path d="M32.93,236.00L36.53,247.06L48.15,247.06L38.75,253.89L42.34,264.94L32.93,258.11L23.53,264.94L27.12,253.89L17.72,247.06L29.34,247.06Z" fill="#FFFFFF"/><path d="M98.80,236.00L102.39,247.06L114.02,247.06L104.61,253.89L108.20,264.94L98.80,258.11L89.40,264.94L92.99,253.89L83.58,247.06L95.21,247.06Z" fill="#FFFFFF"/><path d="M164.67,236.00L168.26,247.06L179.88,247.06L170.48,253.89L174.07,264.94L164.67,258.11L155.26,264.94L158.85,253.89L149.45,247.06L161.07,247.06Z" fill="#FFFFFF"/><path d="M230.53,236.00L234.13,247.06L245.75,247.06L236.35,253.89L239.94,264.94L230.53,258.11L221.13,264.94L224.72,253.89L215.32,247.06L226.94,247.06Z" fill="#FFFFFF"/><path d="M296.40,236.00L299.99,247.06L311.62,247.06L302.21,253.89L305.80,264.94L296.40,258.11L287.00,264.94L290.59,253.89L281.18,247.06L292.81,247.06Z" fill="#FFFFFF"/><path d="M362.27,236.00L365.86,247.06L377.48,247.06L368.08,253.89L371.67,264.94L362.27,258.11L352.86,264.94L356.45,253.89L347.05,247.06L358.67,247.06Z" fill="#FFFFFF"/>
</svg>
